<svg xmlns="http://www.w3.org/2000/svg" xmlns:xlink="http://www.w3.org/1999/xlink" version="1.1" width="200" height="100" viewBox="0 0 600 200" xml:space="preserve">
<desc>Created with Fabric.js 3.5.0</desc>
<defs>
</defs>
<rect x="0" y="0" width="100%" height="100%" fill="#040f35"/>
<g transform="matrix(6.5433 -2.9972 2.9972 6.5433 542.4406 109.3334)" id="161638">
<path style="stroke: rgb(255,255,255); stroke-width: 2; stroke-dasharray: none; stroke-linecap: round; stroke-dashoffset: 0; stroke-linejoin: round; stroke-miterlimit: 4; is-custom-font: none; font-file-url: none; fill: none; fill-rule: nonzero; opacity: 0.58;" vector-effect="non-scaling-stroke" transform=" translate(-12, -12.1264)" d="M 12 6.25278 V 19.2528 M 12 6.25278 C 10.8321 5.47686 9.24649 5 7.5 5 C 5.75351 5 4.16789 5.47686 3 6.25278 V 19.2528 C 4.16789 18.4769 5.75351 18 7.5 18 C 9.24649 18 10.8321 18.4769 12 19.2528 M 12 6.25278 C 13.1679 5.47686 14.7535 5 16.5 5 C 18.2465 5 19.8321 5.47686 21 6.25278 V 19.2528 C 19.8321 18.4769 18.2465 18 16.5 18 C 14.7535 18 13.1679 18.4769 12 19.2528" stroke-linecap="round"/>
</g>
<g transform="matrix(2.093 0 0 0.0382 160.7222 151.7633)" id="376946" clip-path="url(#CLIPPATH_0)">
<clipPath id="CLIPPATH_0">
	<rect transform="matrix(1 0 0 1 0.0001 0.0002)" id="clip0" x="-79" y="-79" rx="0" ry="0" width="158" height="158"/>
</clipPath>
<path style="stroke: none; stroke-width: 0; stroke-dasharray: none; stroke-linecap: butt; stroke-dashoffset: 0; stroke-linejoin: miter; stroke-miterlimit: 4; is-custom-font: none; font-file-url: none; fill: rgb(255,255,255); fill-rule: nonzero; opacity: 1;" vector-effect="non-scaling-stroke" transform=" translate(-78.9999, -78.9998)" d="M 154.685 0.000412995 H 3.31409 C 1.48378 0.000412995 0 1.48419 0 3.31482 V 154.686 C 0 156.516 1.48378 158 3.31409 158 H 154.685 C 156.515 158 157.999 156.516 157.999 154.686 V 3.31482 C 158 3.26917 158 3.22351 157.999 3.17817 C 157.962 1.38527 156.478 -0.0373156 154.685 0.000412995 Z" stroke-linecap="round"/>
</g>
<g transform="matrix(1 0 0 1 151.272 89.3066)" style="" id="148997">
		
</g>
<g transform="matrix(1 0 0 1 224.3863 121.6609)" style="" id="92464">
		
<path xml:space="preserve" font-family="Andada" font-size="43" style="stroke: none; stroke-width: 0; stroke-dasharray: none; stroke-linecap: butt; stroke-dashoffset: 0; stroke-linejoin: miter; stroke-miterlimit: 4; is-custom-font: none; font-file-url: none; fill: rgb(255,217,128); fill-rule: nonzero; opacity: 1; white-space: pre;" d="M-167.18 14.15L-180.21 2.89L-167.23-8.55L-164.95-6.27L-175.83 2.84L-164.90 11.87L-167.18 14.15ZM-137.26 6.28L-134.63 6.20L-134.37 12.69Q-140.57 14.15-144.22 14.15L-144.22 14.15Q-151.19 14.15-154.89 9.90Q-158.58 5.64-158.58-1.61Q-158.58-8.85-154.89-13.15Q-151.19-17.45-144.22-17.45L-144.22-17.45Q-140.74-17.45-137.30-16.59L-137.30-16.59Q-135.15-16.08-134.76-15.99L-134.76-15.99L-135.23-9.63L-137.86-9.80L-137.86-11.82Q-137.86-12.51-138.37-13.97L-138.37-13.97Q-141.64-14.96-144.18-14.96L-144.18-14.96Q-148.91-14.96-151.45-11.24Q-153.98-7.52-153.98-1.67Q-153.98 4.18-151.45 7.92Q-148.91 11.66-144.18 11.66L-144.18 11.66Q-141.25 11.66-137.99 10.71L-137.99 10.71Q-137.34 8.86-137.30 8.28Q-137.26 7.70-137.26 7.14L-137.26 7.14L-137.26 6.28ZM-132.01-17.11L-131.79-19.43Q-128.44-19.00-127.34-19.00Q-126.25-19.00-125.47-19.09L-125.47-19.09L-124.79-19.17L-124.53-18.91L-124.70-16.21Q-124.83-14.70-124.83-11.86L-124.83-11.86L-124.83-5.15Q-122.59-8.12-118.49-8.12Q-114.38-8.12-112.90-5.69Q-111.41-3.26-111.41 1.60L-111.41 1.60L-111.41 6.33Q-111.41 8.61-111.28 9.51L-111.28 9.51L-111.11 11.06L-107.71 11.31L-107.97 13.68L-109.86 13.59Q-112.19 13.51-113.80 13.51Q-115.41 13.51-116.79 13.59L-116.79 13.59L-117.95 13.68L-118.16 11.49L-115.33 11.06Q-115.28 10.67-115.09 9.57Q-114.90 8.48-114.90 7.62L-114.90 7.62L-114.90 0.13Q-114.90-2.36-115.99-3.84Q-117.09-5.33-119.39-5.33Q-121.69-5.33-123.17-3.63Q-124.66-1.93-124.83 0.52L-124.83 0.52L-124.83 6.33Q-124.83 8.61-124.70 9.51L-124.70 9.51L-124.53 11.06L-121.17 11.31L-121.43 13.68L-123.50 13.59Q-125.90 13.51-127.39 13.51Q-128.87 13.51-130.25 13.59L-130.25 13.59L-131.36 13.68L-131.58 11.49L-128.74 11.06Q-128.70 10.67-128.51 9.57Q-128.31 8.48-128.31 7.62L-128.31 7.62L-128.31-13.15Q-128.31-13.80-128.51-14.89Q-128.70-15.99-128.74-16.59L-128.74-16.59L-132.01-17.11ZM-100.96-1.41L-103.46-1.28L-103.93-7.09Q-100.06-8.12-96.08-8.12Q-92.11-8.12-90.58-5.89Q-89.05-3.65-89.05 0.99L-89.05 0.99L-89.05 7.62Q-89.05 8.61-88.62 11.06L-88.62 11.06L-85.66 11.27L-85.91 13.68L-87.33 13.59Q-89.31 13.51-91.50 13.51L-91.50 13.51L-92.11 10.11Q-92.97 11.70-95.01 12.82Q-97.05 13.94-99.54 13.94Q-102.04 13.94-103.61 12.41Q-105.18 10.88-105.18 8.46Q-105.18 6.03-103.93 4.78Q-102.68 3.53-100.79 3.04Q-98.90 2.54-92.54 1.55L-92.54 1.55L-92.54 0.13Q-92.54-5.80-96.58-5.80L-96.58-5.80Q-98.94-5.80-100.58-4.98L-100.58-4.98Q-100.96-3.05-100.96-2.96L-100.96-2.96L-100.96-1.41ZM-101.39 8.00L-101.39 8.00Q-101.39 11.19-97.91 11.19L-97.91 11.19Q-96.06 11.19-94.47 9.81Q-92.88 8.43-92.54 6.33L-92.54 6.33L-92.54 3.75Q-92.75 3.79-95.01 4.18Q-97.27 4.56-98.68 4.91L-98.68 4.91Q-101.39 5.60-101.39 8.00ZM-81.18-14.66Q-81.18-15.95-80.54-16.70Q-79.89-17.45-78.67-17.45Q-77.44-17.45-76.78-16.72Q-76.11-15.99-76.11-14.68Q-76.11-13.37-76.75-12.64Q-77.40-11.91-78.65-11.91Q-79.89-11.91-80.54-12.64Q-81.18-13.37-81.18-14.66ZM-83.68-5.80L-83.46-8.12Q-80.45-7.73-78.99-7.73Q-77.53-7.73-77.14-7.78L-77.14-7.78L-76.45-7.86L-76.20-7.61L-76.37-4.90Q-76.50-3.39-76.50-0.55L-76.50-0.55L-76.50 6.33Q-76.50 8.61-76.37 9.51L-76.37 9.51L-76.20 11.06L-72.84 11.31L-73.10 13.68L-75.16 13.59Q-77.57 13.51-79.03 13.51Q-80.50 13.51-82.13 13.59L-82.13 13.59L-83.51 13.68L-83.72 11.57L-80.41 11.06Q-80.37 10.67-80.17 9.57Q-79.98 8.48-79.98 7.62L-79.98 7.62L-79.98-1.84Q-79.98-2.49-80.17-3.58Q-80.37-4.68-80.41-5.28L-80.41-5.28L-83.68-5.80ZM-54.22 13.21L-54.65 13.64L-59.73 13.51L-70.18 13.51L-70.48 11.01L-68.67 8.99Q-66.86 7.01-66.39 6.28L-66.39 6.28L-61.02-1.63Q-59.30-4.64-58.87-5.50L-58.87-5.50L-64.11-5.50Q-64.41-5.50-66.39-5.24L-66.39-5.24Q-67.42-3.18-67.42-2.57L-67.42-2.57L-67.60-1.07L-70.09-1.24L-69.83-7.52L-69.49-7.86L-67.60-7.78Q-66.61-7.73-65.02-7.73L-65.02-7.73L-54.61-7.73L-54.31-5.24L-55.08-4.29Q-57.19-1.71-58.01-0.55L-58.01-0.55L-63.30 7.40Q-63.81 8.00-65.45 11.27L-65.45 11.27L-60.07 11.27Q-59.60 11.27-57.53 11.01L-57.53 11.01Q-56.67 9.25-56.59 8.78L-56.59 8.78Q-56.42 7.92-56.33 7.10L-56.33 7.10L-53.84 7.36L-54.22 13.21ZM-34.57 13.21L-35.00 13.64L-40.08 13.51L-50.52 13.51L-50.83 11.01L-49.02 8.99Q-47.21 7.01-46.74 6.28L-46.74 6.28L-41.37-1.63Q-39.65-4.64-39.22-5.50L-39.22-5.50L-44.46-5.50Q-44.76-5.50-46.74-5.24L-46.74-5.24Q-47.77-3.18-47.77-2.57L-47.77-2.57L-47.94-1.07L-50.44-1.24L-50.18-7.52L-49.84-7.86L-47.94-7.78Q-46.96-7.73-45.36-7.73L-45.36-7.73L-34.96-7.73L-34.66-5.24L-35.43-4.29Q-37.54-1.71-38.36-0.55L-38.36-0.55L-43.64 7.40Q-44.16 8.00-45.79 11.27L-45.79 11.27L-40.42 11.27Q-39.95 11.27-37.88 11.01L-37.88 11.01Q-37.02 9.25-36.94 8.78L-36.94 8.78Q-36.76 7.92-36.68 7.10L-36.68 7.10L-34.18 7.36L-34.57 13.21ZM-14.92 13.21L-15.35 13.64L-20.42 13.51L-30.87 13.51L-31.17 11.01L-29.37 8.99Q-27.56 7.01-27.09 6.28L-27.09 6.28L-21.71-1.63Q-19.99-4.64-19.56-5.50L-19.56-5.50L-24.81-5.50Q-25.11-5.50-27.09-5.24L-27.09-5.24Q-28.12-3.18-28.12-2.57L-28.12-2.57L-28.29-1.07L-30.79-1.24L-30.53-7.52L-30.19-7.86L-28.29-7.78Q-27.30-7.73-25.71-7.73L-25.71-7.73L-15.31-7.73L-15.01-5.24L-15.78-4.29Q-17.89-1.71-18.70-0.55L-18.70-0.55L-23.99 7.40Q-24.51 8.00-26.14 11.27L-26.14 11.27L-20.77 11.27Q-20.30 11.27-18.23 11.01L-18.23 11.01Q-17.37 9.25-17.29 8.78L-17.29 8.78Q-17.11 7.92-17.03 7.10L-17.03 7.10L-14.53 7.36L-14.92 13.21ZM2.62 2.91Q2.62 6.50 4.04 8.82Q5.46 11.14 8.49 11.14Q11.52 11.14 14.49 9.59L14.49 9.59L15.70 11.62Q14.88 12.30 13.72 12.78L13.72 12.78Q11.48 13.94 8.43 13.94L8.43 13.94Q3.66 13.94 1.12 10.97Q-1.42 8.00-1.42 2.93Q-1.42-2.14 1.12-5.13Q3.66-8.12 8.47-8.12L8.47-8.12Q10.02-8.12 11.09-7.86L11.09-7.86Q12.47-7.52 15.22-6.62L15.22-6.62L14.79-1.24L12.30-1.37L12.30-2.92Q12.30-3.26 12.00-4.38L12.00-4.38Q10.45-5.67 8.47-5.67L8.47-5.67Q5.46-5.67 4.04-3.18Q2.62-0.68 2.62 2.91ZM29.28-8.12Q34.10-8.12 36.61-5.15Q39.13-2.19 39.13 2.89Q39.13 7.96 36.57 10.95Q34.01 13.94 29.24 13.94Q24.47 13.94 21.91 10.95Q19.35 7.96 19.35 2.91Q19.35-2.14 21.91-5.13Q24.47-8.12 29.28-8.12ZM33.71 9.08Q35.09 6.67 35.09 2.93Q35.09-0.81 33.71-3.24Q32.34-5.67 29.24-5.67Q26.14-5.67 24.77-3.24Q23.39-0.81 23.39 2.93Q23.39 6.67 24.77 9.08Q26.14 11.49 29.24 11.49Q32.34 11.49 33.71 9.08ZM52.76-17.11L52.98-19.43Q56.72-19.00 57.88-19.00Q59.04-19.00 59.81-19.09L59.81-19.09L60.50-19.17L60.76-18.91L60.59-16.21Q60.46-14.70 60.46-11.86L60.46-11.86L60.46 7.62Q60.46 8.61 60.89 11.06L60.89 11.06L63.86 11.27L63.60 13.68L62.18 13.59Q60.20 13.51 58.01 13.51L58.01 13.51L57.45 10.02Q56.98 11.23 55.21 12.58Q53.45 13.94 51.21 13.94L51.21 13.94Q46.91 13.94 44.74 10.82Q42.57 7.70 42.57 2.87Q42.57-1.97 44.89-5.05Q47.21-8.12 51.60-8.12L51.60-8.12Q53.97-8.12 56.98-7.09L56.98-7.09L56.98-13.15Q56.98-13.80 56.78-14.89Q56.59-15.99 56.55-16.59L56.55-16.59L52.76-17.11ZM51.51 11.19L51.51 11.19Q54.18 11.19 55.58 9.40Q56.98 7.62 56.98 4.61L56.98 4.61L56.98-3.99Q54.57-5.50 51.86-5.50Q49.15-5.50 47.84-3.07Q46.53-0.64 46.53 2.93L46.53 2.93Q46.53 5.08 46.93 6.82Q47.34 8.56 48.53 9.87Q49.71 11.19 51.51 11.19ZM82.99 9.38L84.19 11.36Q81.10 13.94 76.45 13.94Q71.81 13.94 69.25 10.97Q66.69 8.00 66.69 2.97Q66.69-2.06 69.08-5.07Q71.47-8.08 76.07-8.08L76.07-8.08Q84.32-8.08 84.32 1.90L84.32 1.90L83.59 3.32L70.74 3.32Q70.82 6.50 72.35 8.82Q73.87 11.14 76.58 11.14L76.58 11.14Q80.07 11.14 82.99 9.38L82.99 9.38ZM80.32 0.44L80.32 0.09L80.37-0.42Q80.37-2.92 79.27-4.38Q78.17-5.84 75.90-5.84L75.90-5.84Q71.47-5.84 70.78 1.12L70.78 1.12Q78.91 0.44 80.32 0.44L80.32 0.44ZM103.16 13.21L102.73 13.64L97.65 13.51L87.20 13.51L86.90 11.01L88.71 8.99Q90.52 7.01 90.99 6.28L90.99 6.28L96.36-1.63Q98.08-4.64 98.51-5.50L98.51-5.50L93.27-5.50Q92.97-5.50 90.99-5.24L90.99-5.24Q89.96-3.18 89.96-2.57L89.96-2.57L89.78-1.07L87.29-1.24L87.55-7.52L87.89-7.86L89.78-7.78Q90.77-7.73 92.36-7.73L92.36-7.73L102.77-7.73L103.07-5.24L102.30-4.29Q100.19-1.71 99.37-0.55L99.37-0.55L94.08 7.40Q93.57 8.00 91.93 11.27L91.93 11.27L97.31 11.27Q97.78 11.27 99.85 11.01L99.85 11.01Q100.71 9.25 100.79 8.78L100.79 8.78Q100.96 7.92 101.05 7.10L101.05 7.10L103.54 7.36L103.16 13.21ZM122.81 13.21L122.38 13.64L117.30 13.51L106.86 13.51L106.55 11.01L108.36 8.99Q110.17 7.01 110.64 6.28L110.64 6.28L116.01-1.63Q117.73-4.64 118.16-5.50L118.16-5.50L112.92-5.50Q112.62-5.50 110.64-5.24L110.64-5.24Q109.61-3.18 109.61-2.57L109.61-2.57L109.44-1.07L106.94-1.24L107.20-7.52L107.54-7.86L109.44-7.78Q110.42-7.73 112.02-7.73L112.02-7.73L122.42-7.73L122.72-5.24L121.95-4.29Q119.84-1.71 119.02-0.55L119.02-0.55L113.74 7.40Q113.22 8.00 111.59 11.27L111.59 11.27L116.96 11.27Q117.43 11.27 119.50 11.01L119.50 11.01Q120.36 9.25 120.44 8.78L120.44 8.78Q120.62 7.92 120.70 7.10L120.70 7.10L123.20 7.36L122.81 13.21ZM142.46 13.21L142.03 13.64L136.96 13.51L126.51 13.51L126.21 11.01L128.01 8.99Q129.82 7.01 130.29 6.28L130.29 6.28L135.67-1.63Q137.39-4.64 137.82-5.50L137.82-5.50L132.57-5.50Q132.27-5.50 130.29-5.24L130.29-5.24Q129.26-3.18 129.26-2.57L129.26-2.57L129.09-1.07L126.59-1.24L126.85-7.52L127.19-7.86L129.09-7.78Q130.08-7.73 131.67-7.73L131.67-7.73L142.07-7.73L142.37-5.24L141.60-4.29Q139.49-1.71 138.68-0.55L138.68-0.55L133.39 7.40Q132.87 8.00 131.24 11.27L131.24 11.27L136.61 11.27Q137.08 11.27 139.15 11.01L139.15 11.01Q140.01 9.25 140.09 8.78L140.09 8.78Q140.27 7.92 140.35 7.10L140.35 7.10L142.85 7.36L142.46 13.21ZM160.73-18.87L147.40 16.39L144.65 15.53L158.03-19.73L160.73-18.87ZM164.95-6.27L167.23-8.55L180.21 2.89L167.18 14.15L164.91 11.87L175.83 2.84L164.95-6.27Z"/></g>
<g transform="matrix(0.9694 -0.2457 0.2457 0.9694 439.2786 67.0917)" style="" id="453411">
		
<path xml:space="preserve" font-family="Lato" font-size="32" style="stroke: none; stroke-width: 0; stroke-dasharray: none; stroke-linecap: butt; stroke-dashoffset: 0; stroke-linejoin: miter; stroke-miterlimit: 4; is-custom-font: none; font-file-url: none; fill: rgb(255,255,255); fill-rule: nonzero; opacity: 1; white-space: pre;" d="M-1.20-8.60L1.14-8.60L1.14-1.77L7.65-1.77L7.65 0.39L1.14 0.39L1.14 7.27L-1.20 7.27L-1.20 0.39L-7.68 0.39L-7.68-1.77L-1.20-1.77L-1.20-8.60Z"/></g>
<g transform="matrix(0.9694 -0.2457 0.2457 0.9694 474.3032 43.0917)" style="" id="510849">
		
<path xml:space="preserve" font-family="Lato" font-size="32" style="stroke: none; stroke-width: 0; stroke-dasharray: none; stroke-linecap: butt; stroke-dashoffset: 0; stroke-linejoin: miter; stroke-miterlimit: 4; is-custom-font: none; font-file-url: none; fill: rgb(255,255,255); fill-rule: nonzero; opacity: 1; white-space: pre;" d="M-3.95 1.67L-3.95-0.75L3.95-0.75L3.95 1.67L-3.95 1.67Z"/></g>
<g transform="matrix(0.3978 -0.9175 0.9175 0.3978 449.6158 121.6609)" style="" id="587717">
		
<path xml:space="preserve" font-family="Lato" font-size="20" style="stroke: none; stroke-width: 0; stroke-dasharray: none; stroke-linecap: butt; stroke-dashoffset: 0; stroke-linejoin: miter; stroke-miterlimit: 4; is-custom-font: none; font-file-url: none; fill: rgb(255,255,255); fill-rule: nonzero; opacity: 1; white-space: pre;" d="M-6.29 6.28L-1.36-1.08L-6.09-8.05L-4.16-8.05Q-3.95-8.05-3.85-7.98Q-3.75-7.91-3.67-7.78L-3.67-7.78L0.07-2.04Q0.14-2.25 0.28-2.50L0.28-2.50L3.81-7.74Q3.90-7.88 4.01-7.96Q4.11-8.05 4.26-8.05L4.26-8.05L6.11-8.05L1.36-1.17L6.27 6.28L4.35 6.28Q4.13 6.28 4.01 6.17Q3.88 6.05 3.80 5.91L3.80 5.91L-0.04-0.10Q-0.11 0.11-0.22 0.30L-0.22 0.30L-3.96 5.91Q-4.05 6.05-4.16 6.17Q-4.28 6.28-4.49 6.28L-4.49 6.28L-6.29 6.28Z"/></g>
<g transform="matrix(0 2.5136 -0.0382 0 37.1717 -0.4973)" id="50986" clip-path="url(#CLIPPATH_1)">
<clipPath id="CLIPPATH_1">
	<rect transform="matrix(1 0 0 1 0.0001 0.0002)" id="clip0" x="-79" y="-79" rx="0" ry="0" width="158" height="158"/>
</clipPath>
<path style="stroke: none; stroke-width: 0; stroke-dasharray: none; stroke-linecap: butt; stroke-dashoffset: 0; stroke-linejoin: miter; stroke-miterlimit: 4; is-custom-font: none; font-file-url: none; fill: rgb(255,255,255); fill-rule: nonzero; opacity: 1;" vector-effect="non-scaling-stroke" transform=" translate(-78.9999, -78.9998)" d="M 154.685 0.000412995 H 3.31409 C 1.48378 0.000412995 0 1.48419 0 3.31482 V 154.686 C 0 156.516 1.48378 158 3.31409 158 H 154.685 C 156.515 158 157.999 156.516 157.999 154.686 V 3.31482 C 158 3.26917 158 3.22351 157.999 3.17817 C 157.962 1.38527 156.478 -0.0373156 154.685 0.000412995 Z" stroke-linecap="round"/>
</g>
</svg>